<svg width="1314" height="194" viewBox="0 0 1314 194" fill="none" xmlns="http://www.w3.org/2000/svg">
<g clip-path="url(#clip0_100_1365)">
<path d="M24.6228 125.061H22.7348L20.8467 132.632H0V0H22.7348V45.4695H24.6228C30.3064 39.7858 37.8781 35.9901 49.2455 35.9901C73.8683 35.9901 90.939 56.8369 90.939 79.5716V90.939C90.939 113.674 73.8879 134.52 49.2455 134.52C37.8781 134.52 30.3064 130.725 24.6228 125.041V125.061ZM68.2042 90.9587V79.5913C68.2042 64.4282 56.8369 56.8565 45.4695 56.8565C34.1021 56.8565 22.7348 64.4282 22.7348 79.5913V90.9587C22.7348 106.122 34.1021 113.693 45.4695 113.693C56.8369 113.693 68.2042 106.122 68.2042 90.9587Z" fill="#181000"/>
<path d="M101.362 89.051V81.4793C101.362 56.8566 118.413 36.0098 146.832 36.0098C175.25 36.0098 192.301 56.8566 192.301 81.4793V90.9587L190.413 92.8467H124.097C124.097 106.102 133.576 115.581 146.832 115.581C160.087 115.581 165.771 108.01 167.679 102.326H190.413V104.214C188.525 115.581 177.158 134.54 146.832 134.54C118.413 134.54 101.362 113.693 101.362 89.0707V89.051ZM169.567 75.7956C169.567 64.4283 160.087 54.9489 146.832 54.9489C133.576 54.9489 124.097 64.4283 124.097 75.7956H169.567Z" fill="#181000"/>
<path d="M200.818 106.102C200.818 89.051 212.186 75.7759 242.512 75.7759H265.247V71.9803C265.247 62.5009 259.563 54.9292 246.308 54.9292C233.052 54.9292 227.368 62.5009 227.368 68.1846H204.634V66.2966C204.634 54.9292 216.001 35.9705 246.327 35.9705C276.653 35.9705 288.021 54.9095 288.021 75.7563V132.593H267.174L265.286 125.021H263.398C259.602 128.817 250.143 134.501 234.979 134.501C214.133 134.501 200.877 123.133 200.877 106.082L200.818 106.102ZM265.247 92.8467H242.512C229.256 92.8467 223.573 96.6423 223.573 104.214C223.573 111.786 229.256 115.581 240.624 115.581C255.787 115.581 265.247 106.102 265.247 92.8467Z" fill="#181000"/>
<path d="M304.088 96.6424V37.8978H326.823V96.6424C326.823 109.898 334.394 113.693 343.874 113.693C355.241 113.693 366.608 106.122 366.608 90.9587V37.8978H389.343V132.633H368.496L366.608 125.061H364.72C359.037 130.744 351.465 134.54 340.098 134.54C317.363 134.54 304.088 117.489 304.088 96.6424Z" fill="#181000"/>
<path d="M447.125 132.633C428.186 132.633 418.706 119.377 418.706 104.214V58.7446H401.655V37.8979H418.706V11.3674H441.441V37.8979H462.288V58.7446H441.441V104.214C441.441 109.898 443.329 111.786 449.013 111.786H464.176V132.633H447.125Z" fill="#181000"/>
<path d="M476.486 170.53V149.684H493.537C501.108 149.684 503.016 145.888 504.904 140.204L506.792 134.521V132.633L470.782 39.7858V37.8978H493.517L518.14 106.102H520.028L544.65 37.8978H567.385V39.7858L529.487 138.316C520.008 162.939 512.436 170.53 493.478 170.53H476.427H476.486Z" fill="#181000"/>
<path d="M620.486 132.632V51.1532H603.435V37.8978H620.486V24.6424C620.486 7.59136 631.853 0 645.108 0H664.047V13.2554H646.996C639.425 13.2554 635.629 15.1434 635.629 24.6228V37.8781H658.364V51.1335H635.629V132.613H620.466L620.486 132.632Z" fill="#181000"/>
<path d="M868.659 132.633V37.8978H881.915L883.803 49.2652H885.691C889.486 41.6935 898.946 37.8978 912.221 37.8978H917.905V51.1532H908.425C895.17 51.1532 883.803 60.6326 883.803 75.776V132.613H868.64L868.659 132.633Z" fill="#181000"/>
<path d="M952.972 132.633L926.441 39.7858V37.8978H941.604L962.451 117.469H964.339L983.278 39.7858H1004.13L1023.06 117.469H1024.95L1045.8 37.8978H1060.96V39.7858L1034.43 132.633H1013.58L994.646 54.9489H992.758L973.819 132.633H952.972Z" fill="#181000"/>
<path d="M1071.39 106.102C1071.39 89.051 1082.75 75.7759 1113.08 75.7759H1135.81V70.0922C1135.81 58.7249 1130.13 49.2455 1113.08 49.2455C1096.03 49.2455 1090.35 58.7249 1090.35 66.2966H1075.18V64.4086C1075.18 54.9292 1082.75 35.9901 1113.08 35.9901C1143.41 35.9901 1150.98 54.9292 1150.98 71.9999V132.632H1137.72L1135.83 121.265H1133.95C1128.26 128.837 1116.9 134.52 1103.62 134.52C1084.68 134.52 1071.41 123.153 1071.41 106.102H1071.39ZM1135.81 94.7347V89.051H1109.28C1094.12 89.051 1086.55 94.7347 1086.55 106.102C1086.55 115.581 1094.12 121.265 1107.4 121.265C1124.45 121.265 1135.81 109.898 1135.81 94.7347Z" fill="#181000"/>
<path d="M1172.75 132.633V37.8978H1186L1187.89 49.2652H1189.78C1193.57 41.6935 1203.03 37.8978 1216.31 37.8978H1221.99V51.1532H1212.51C1199.26 51.1532 1187.89 60.6326 1187.89 75.776V132.613H1172.73L1172.75 132.633Z" fill="#181000"/>
<path d="M1230.53 94.7347V75.7956C1230.53 56.8565 1243.78 36.0098 1270.32 36.0098C1279.79 36.0098 1291.16 39.8055 1296.85 49.2652H1298.73V0H1313.9V132.632H1300.64L1298.75 121.265H1296.87C1291.18 130.744 1279.81 134.52 1270.33 134.52C1243.8 134.52 1230.55 113.674 1230.55 94.7347H1230.53ZM1298.73 94.7347V75.7956C1298.73 60.6326 1287.37 49.2652 1272.2 49.2652C1257.04 49.2652 1245.67 60.6326 1245.67 75.7956V94.7347C1245.67 109.898 1257.04 121.265 1272.2 121.265C1287.37 121.265 1298.73 109.898 1298.73 94.7347Z" fill="#181000"/>
<path d="M808.206 49.6979C811.215 49.6979 814.244 50.0912 817.194 50.8582C832.888 54.9096 843.842 69.0499 843.842 85.2357C843.842 88.225 843.449 91.234 842.701 94.184C838.65 109.878 824.49 120.832 808.265 120.832C805.276 120.832 802.286 120.439 799.376 119.692C793.987 118.295 789.129 115.739 784.94 112.1C778.175 106.22 769.522 102.995 760.573 102.995C751.645 102.995 743.031 106.2 736.304 112.041C729.775 117.705 721.456 120.813 712.881 120.813C709.892 120.813 706.922 120.439 704.031 119.692C688.337 115.64 677.383 101.5 677.383 85.3143C677.383 82.3053 677.776 79.316 678.524 76.366C681.238 65.8443 688.554 57.2302 698.584 52.7265C703.009 50.7402 707.945 49.6979 712.881 49.6979C715.458 49.6979 718.054 49.9732 720.571 50.5435C726.491 51.8612 731.781 54.5162 736.285 58.4299C743.03 64.2906 751.664 67.5356 760.613 67.5356C769.561 67.5356 778.136 64.3299 784.881 58.4889C786.533 57.0729 788.343 55.7749 790.25 54.6342C795.737 51.4089 801.952 49.6979 808.206 49.6979ZM808.206 37.8978C799.867 37.8978 791.647 40.1202 784.252 44.4665C781.715 45.9612 779.335 47.6722 777.152 49.5602C772.413 53.6706 766.513 55.7356 760.613 55.7356C754.713 55.7356 748.793 53.6706 744.033 49.5405C738.035 44.3092 730.994 40.7692 723.128 39.0385C719.745 38.2912 716.323 37.9175 712.881 37.9175C706.332 37.9175 699.783 39.2745 693.765 41.9885C680.313 48.0262 670.736 59.4329 667.117 73.4356C666.114 77.3296 665.603 81.3416 665.603 85.334C665.603 106.889 680.195 125.729 701.101 131.138C704.995 132.141 708.968 132.633 712.901 132.633C724.19 132.633 735.282 128.581 744.053 120.97C748.793 116.86 754.693 114.814 760.593 114.814C766.532 114.814 772.472 116.899 777.231 121.029C782.797 125.867 789.267 129.269 796.445 131.138C800.418 132.16 804.391 132.652 808.304 132.652C829.367 132.652 848.641 118.472 854.148 97.1537C855.151 93.24 855.662 89.2477 855.662 85.2553C855.662 63.6809 841.069 44.8599 820.163 39.4515C816.21 38.4288 812.198 37.9175 808.226 37.9175L808.206 37.8978Z" fill="#181000"/>
</g>
<g clip-path="url(#clip1_100_1365)">
<path d="M1043.79 184.628H1043.42L1043.04 186.138H1038.95V159.694H1043.42V168.759H1043.79C1044.9 167.626 1046.39 166.869 1048.63 166.869C1053.47 166.869 1056.82 171.026 1056.82 175.559V177.825C1056.82 182.358 1053.47 186.514 1048.63 186.514C1046.39 186.514 1044.9 185.757 1043.79 184.624V184.628ZM1052.35 177.829V175.562C1052.35 172.539 1050.12 171.03 1047.88 171.03C1045.65 171.03 1043.42 172.539 1043.42 175.562V177.829C1043.42 180.852 1045.65 182.362 1047.88 182.362C1050.12 182.362 1052.35 180.852 1052.35 177.829Z" fill="#181000"/>
<path d="M1058.12 193.694V189.537H1061.47C1062.96 189.537 1063.34 188.781 1063.71 187.647L1064.08 186.514V186.138L1057 167.626V167.25H1061.47L1066.31 180.848H1066.68L1071.52 167.25H1075.99V167.626L1068.54 187.271C1066.68 192.18 1065.19 193.694 1061.46 193.694H1058.11H1058.12Z" fill="#181000"/>
<path d="M1088.66 184.628H1088.29L1087.92 186.138H1083.82V159.694H1088.29V168.759H1088.66C1089.78 167.626 1091.27 166.869 1093.5 166.869C1098.34 166.869 1101.69 171.026 1101.69 175.559V177.825C1101.69 182.358 1098.34 186.514 1093.5 186.514C1091.27 186.514 1089.78 185.757 1088.66 184.624V184.628ZM1097.23 177.829V175.562C1097.23 172.539 1094.99 171.03 1092.76 171.03C1090.52 171.03 1088.29 172.539 1088.29 175.562V177.829C1088.29 180.852 1090.52 182.362 1092.76 182.362C1094.99 182.362 1097.23 180.852 1097.23 177.829Z" fill="#181000"/>
<path d="M1103.74 177.449V175.939C1103.74 171.03 1107.09 166.873 1112.68 166.873C1118.26 166.873 1121.61 171.03 1121.61 175.939V177.829L1121.24 178.205H1108.21C1108.21 180.848 1110.07 182.738 1112.68 182.738C1115.28 182.738 1116.4 181.228 1116.77 180.095H1121.24V180.472C1120.87 182.738 1118.64 186.518 1112.68 186.518C1107.09 186.518 1103.74 182.362 1103.74 177.452V177.449ZM1117.15 174.806C1117.15 172.539 1115.28 170.649 1112.68 170.649C1110.07 170.649 1108.21 172.539 1108.21 174.806H1117.15Z" fill="#181000"/>
<path d="M1123.29 180.848C1123.29 177.449 1125.53 174.802 1131.49 174.802H1135.95V174.045C1135.95 172.155 1134.84 170.645 1132.23 170.645C1129.63 170.645 1128.51 172.155 1128.51 173.288H1124.04V172.912C1124.04 170.645 1126.28 166.865 1132.24 166.865C1138.2 166.865 1140.43 170.642 1140.43 174.798V186.13H1136.33L1135.96 184.62H1135.59C1134.84 185.377 1132.99 186.51 1130.01 186.51C1125.91 186.51 1123.3 184.244 1123.3 180.844L1123.29 180.848ZM1135.95 178.205H1131.49C1128.88 178.205 1127.76 178.962 1127.76 180.472C1127.76 181.981 1128.88 182.738 1131.11 182.738C1134.09 182.738 1135.95 180.848 1135.95 178.205Z" fill="#181000"/>
<path d="M1143.58 178.962V167.25H1148.05V178.962C1148.05 181.605 1149.54 182.362 1151.4 182.362C1153.64 182.362 1155.87 180.852 1155.87 177.829V167.25H1160.34V186.138H1156.24L1155.87 184.628H1155.5C1154.38 185.761 1152.9 186.518 1150.66 186.518C1146.19 186.518 1143.58 183.119 1143.58 178.962Z" fill="#181000"/>
<path d="M1171.7 186.138C1167.98 186.138 1166.11 183.495 1166.11 180.472V171.406H1162.76V167.25H1166.11V161.96H1170.58V167.25H1174.68V171.406H1170.58V180.472C1170.58 181.605 1170.95 181.981 1172.07 181.981H1175.05V186.138H1171.7Z" fill="#181000"/>
<path d="M1177.47 193.694V189.537H1180.82C1182.31 189.537 1182.69 188.781 1183.06 187.647L1183.43 186.514V186.138L1176.35 167.626V167.25H1180.82L1185.66 180.848H1186.03L1190.87 167.25H1195.34V167.626L1187.89 187.271C1186.03 192.18 1184.54 193.694 1180.81 193.694H1177.46H1177.47Z" fill="#181000"/>
<path d="M1202.05 180.848C1202.05 177.449 1204.28 174.802 1210.24 174.802H1214.71V174.045C1214.71 172.155 1213.59 170.645 1210.99 170.645C1208.38 170.645 1207.27 172.155 1207.27 173.288H1202.8V172.912C1202.8 170.645 1205.03 166.865 1210.99 166.865C1216.95 166.865 1219.19 170.642 1219.19 174.798V186.13H1215.09L1214.72 184.62H1214.35C1213.6 185.377 1211.74 186.51 1208.76 186.51C1204.66 186.51 1202.06 184.244 1202.06 180.844L1202.05 180.848ZM1214.71 178.205H1210.24C1207.64 178.205 1206.52 178.962 1206.52 180.472C1206.52 181.981 1207.64 182.738 1209.87 182.738C1212.85 182.738 1214.71 180.848 1214.71 178.205Z" fill="#181000"/>
<path d="M1221.6 177.449V175.939C1221.6 171.03 1224.95 166.873 1230.54 166.873C1236.12 166.873 1238.36 170.649 1238.73 172.92V173.296H1234.26C1233.89 172.163 1232.77 171.03 1230.54 171.03C1228.31 171.03 1226.07 172.539 1226.07 175.562V177.829C1226.07 180.852 1228.31 182.362 1230.54 182.362C1232.77 182.362 1233.89 181.228 1234.26 180.095H1238.73V180.472C1238.36 182.738 1236.13 186.518 1230.54 186.518C1224.95 186.518 1221.6 182.362 1221.6 177.452V177.449Z" fill="#181000"/>
<path d="M1240.78 177.449V175.939C1240.78 171.03 1244.13 166.873 1249.71 166.873C1255.3 166.873 1257.53 170.649 1257.91 172.92V173.296H1253.44C1253.07 172.163 1251.95 171.03 1249.72 171.03C1247.48 171.03 1245.25 172.539 1245.25 175.562V177.829C1245.25 180.852 1247.48 182.362 1249.72 182.362C1251.95 182.362 1253.07 181.228 1253.44 180.095H1257.91V180.472C1257.54 182.738 1255.3 186.518 1249.71 186.518C1244.12 186.518 1240.78 182.362 1240.78 177.452V177.449Z" fill="#181000"/>
<path d="M1259.95 177.449V175.939C1259.95 171.03 1263.3 166.873 1268.89 166.873C1274.47 166.873 1277.82 171.03 1277.82 175.939V177.829L1277.45 178.205H1264.42C1264.42 180.848 1266.28 182.738 1268.89 182.738C1271.49 182.738 1272.61 181.228 1272.99 180.095H1277.45V180.472C1277.08 182.738 1274.85 186.518 1268.89 186.518C1263.3 186.518 1259.95 182.362 1259.95 177.452V177.449ZM1273.36 174.806C1273.36 172.539 1271.49 170.649 1268.89 170.649C1266.28 170.649 1264.42 172.539 1264.42 174.806H1273.36Z" fill="#181000"/>
<path d="M1279.5 180.472V180.095H1283.97C1283.97 181.228 1285.09 182.738 1287.69 182.738C1290.3 182.738 1291.42 181.605 1291.42 180.472C1291.42 179.715 1291.04 179.339 1289.18 178.962L1285.46 178.205C1281.74 177.449 1279.87 175.562 1279.87 172.539C1279.87 170.273 1282.11 166.873 1287.69 166.873C1293.28 166.873 1295.51 170.649 1295.51 172.92V173.296H1291.04C1291.04 172.163 1289.93 170.653 1287.69 170.653C1285.46 170.653 1284.34 171.41 1284.34 172.543C1284.34 173.3 1284.71 174.053 1286.58 174.433L1290.3 175.19C1294.02 175.947 1295.88 177.456 1295.88 180.48C1295.88 183.122 1293.65 186.526 1287.69 186.526C1281.73 186.526 1279.49 182.75 1279.49 180.48L1279.5 180.472Z" fill="#181000"/>
<path d="M1297.56 180.472V180.095H1302.03C1302.03 181.228 1303.15 182.738 1305.75 182.738C1308.36 182.738 1309.48 181.605 1309.48 180.472C1309.48 179.715 1309.1 179.339 1307.24 178.962L1303.52 178.205C1299.8 177.449 1297.93 175.562 1297.93 172.539C1297.93 170.273 1300.17 166.873 1305.75 166.873C1311.34 166.873 1313.57 170.649 1313.57 172.92V173.296H1309.1C1309.1 172.163 1307.99 170.653 1305.75 170.653C1303.52 170.653 1302.4 171.41 1302.4 172.543C1302.4 173.3 1302.77 174.053 1304.64 174.433L1308.36 175.19C1312.08 175.947 1313.94 177.456 1313.94 180.48C1313.94 183.122 1311.71 186.526 1305.75 186.526C1299.79 186.526 1297.55 182.75 1297.55 180.48L1297.56 180.472Z" fill="#181000"/>
</g>
<defs>
<clipPath id="clip0_100_1365">
<rect width="1313.9" height="170.53" fill="white"/>
</clipPath>
<clipPath id="clip1_100_1365">
<rect width="275" height="34" fill="white" transform="translate(1038.95 159.694)"/>
</clipPath>
</defs>
</svg>
